<?xml version="1.0" encoding="utf-8"?>
<!-- Generator: Adobe Illustrator 23.0.0, SVG Export Plug-In . SVG Version: 6.00 Build 0)  -->
<svg version="1.1" id="Livello_1" xmlns="http://www.w3.org/2000/svg" xmlns:xlink="http://www.w3.org/1999/xlink" x="0px" y="0px"
	 viewBox="0 0 462.88 436.01" style="enable-background:new 0 0 462.88 436.01;" xml:space="preserve">
<style type="text/css">
	.st0{fill:#FFCC39;}
	.st1{fill:#F7B50E;}
</style>
<path class="st0" d="M177.74,2.75c-22.41,2.87-41.88,7.65-57.85,12.63c-0.67,5.39-1.35,10.78-2.02,16.17
	c-2.09-0.96-5.2-2.1-9.09-2.53c-3.23-0.35-7.18-0.78-11.37,1.26c-3.46,1.69-5.6,4.35-6.82,6.32c-9.8-3.53-18.26-5.45-24.51-6.57
	c-12.14-2.17-19.4-3.47-28.8-1.26c-9.31,2.18-16.08,6.71-19.96,9.85c-2.99,2.42-10.56,8.71-14.65,19.45
	c-4.99,13.11-1.81,25.02,0.25,32.34c4.67,16.54,14.11,26.88,22.99,36.38c9,9.63,26.12,27.95,52.55,37.39
	c16.93,6.05,22.57,9.08,33.85,15.16c0,0,4.61,2.48,12.88,9.85c3.57,3.18,5.42,5.27,6.06,8.34c0.82,3.92-0.8,7.18-1.26,8.08
	c-2.96,5.77-9.17,7.14-10.11,7.33c-0.22,1.28-0.41,3.24,0,5.56c0.3,1.68,0.86,4.9,3.28,7.07c3.26,2.93,7.95,2.23,9.35,2.02
	c6.78-1.01,10.84-6.56,12.88-9.35c2.8-3.83,4.13-7.65,4.8-10.36c4.93,10.31,10.52,17.16,14.65,21.47
	c8.3,8.65,20.86,17.64,21.98,18.44c5.66,4.02,9.44,6.22,13.64,11.37c3.54,4.33,5.63,8.61,7.33,12.88
	c12.41,31.22,8.84,62.4,8.84,62.4c-0.77,6.76-2.42,16.45-6.32,27.79c-0.61-0.29-5.7-2.63-10.61,0c-1.06,0.57-3.58,2.16-4.8,5.31
	c-1.11,2.86-1.14,7.02,1.52,9.85c1.71,1.82,3.85,2.35,4.8,2.53c-6.91,13.22-13.81,26.44-20.72,39.66
	c-5.77-0.93-10.42-0.36-13.39,0.25c-3.73,0.77-11.78,2.44-14.4,8.08c-0.44,0.95-1.68,3.63-0.51,6.06c0.49,1.01,1.24,1.65,1.77,2.02
	c26.02,0,52.04,0,78.06,0c0.34-145.26,0.67-290.53,1.01-435.79C217.23-0.35,198.53,0.08,177.74,2.75z M103.01,154.29
	c-5.14-2.4-8.59-3.83-15.06-7.11c-2.76-1.4-11.53-5.86-19.52-10.89c-7.32-4.62-20.04-12.77-32.12-27.09
	C25.54,96.42,22.37,87.15,21.06,81.53c-1.1-4.73-1.2-8.32-0.66-11.75c0.48-3.03,2.26-10.96,9-16.48c5.84-4.79,12.22-5.15,19.99-5.59
	c9.55-0.54,16.83,1.51,23.59,3.41c6.74,1.9,10.1,2.85,13.64,5.4c6.6,4.76,6.69,9.28,12.13,12.13c2.91,1.52,7.84,2.82,16.11,0.28
	c-0.32,13.57,0.3,29.68,2.97,47.59c3.1,20.76,8.15,38.52,13.23,52.74C119.37,162.25,109.72,157.42,103.01,154.29z"/>
<path class="st1" d="M460.22,58.07c-4.09-10.74-11.67-17.03-14.65-19.45c-3.87-3.14-10.64-7.67-19.96-9.85
	c-9.4-2.2-16.66-0.91-28.8,1.26c-6.24,1.12-14.71,3.04-24.51,6.57c-1.22-1.97-3.36-4.63-6.82-6.32c-4.19-2.05-8.14-1.62-11.37-1.26
	c-3.9,0.42-7,1.56-9.09,2.53c-0.67-5.39-1.35-10.78-2.02-16.17c-15.98-4.98-35.44-9.76-57.85-12.63c-20.8-2.67-39.5-3.1-55.33-2.53
	c0.34,145.26,0.67,290.53,1.01,435.79c26.02,0,52.04,0,78.06,0c0.53-0.37,1.28-1.01,1.77-2.02c1.18-2.43-0.06-5.11-0.51-6.06
	c-2.62-5.64-10.67-7.31-14.4-8.08c-2.97-0.62-7.62-1.18-13.39-0.25c-6.91-13.22-13.81-26.44-20.72-39.66
	c0.95-0.18,3.09-0.71,4.8-2.53c2.66-2.83,2.62-6.99,1.52-9.85c-1.22-3.15-3.74-4.74-4.8-5.31c-4.92-2.63-10-0.29-10.61,0
	c-3.89-11.33-5.54-21.02-6.32-27.79c0,0-3.56-31.18,8.84-62.4c1.7-4.27,3.79-8.55,7.33-12.88c4.2-5.15,7.98-7.34,13.64-11.37
	c1.12-0.8,13.68-9.79,21.98-18.44c4.13-4.31,9.72-11.16,14.65-21.47c0.67,2.71,2,6.53,4.8,10.36c2.04,2.79,6.11,8.34,12.88,9.35
	c1.4,0.21,6.09,0.9,9.35-2.02c2.42-2.17,2.99-5.39,3.28-7.07c0.41-2.32,0.22-4.28,0-5.56c-0.93-0.19-7.15-1.56-10.11-7.33
	c-0.46-0.9-2.08-4.17-1.26-8.08c0.64-3.07,2.49-5.15,6.06-8.34c8.27-7.37,12.88-9.85,12.88-9.85c11.28-6.08,16.93-9.11,33.85-15.16
	c26.42-9.44,43.54-27.76,52.55-37.39c8.88-9.5,18.32-19.84,22.99-36.38C462.03,83.09,465.21,71.18,460.22,58.07z M438.56,81.53
	c-1.3,5.62-4.48,14.89-15.25,27.66c-12.08,14.32-24.8,22.48-32.12,27.09c-7.98,5.03-16.76,9.5-19.52,10.89
	c-6.47,3.28-9.93,4.7-15.06,7.11c-6.71,3.13-16.36,7.96-28.04,14.97c5.09-14.22,10.14-31.97,13.23-52.74
	c2.67-17.91,3.29-34.02,2.97-47.59c8.27,2.54,13.2,1.24,16.11-0.28c5.43-2.84,5.53-7.36,12.13-12.13c3.54-2.55,6.91-3.5,13.64-5.4
	c6.76-1.9,14.04-3.95,23.59-3.41c7.77,0.44,14.15,0.8,19.99,5.59c6.74,5.52,8.52,13.46,9,16.48
	C439.76,73.21,439.65,76.8,438.56,81.53z"/>
</svg>
